<svg width="390" height="844" viewBox="0 0 390 844" fill="none" xmlns="http://www.w3.org/2000/svg">
<g clip-path="url(#clip0_12_237)">
<rect width="390" height="844" fill="#08090B"/>
<text fill="white" fill-opacity="0.85" style="white-space: pre" xml:space="preserve" font-family="Inter" font-size="17" letter-spacing="0em"><tspan x="16" y="81.1818">&#x2039;  Valorant</tspan></text>
<rect x="344" y="60" width="30" height="30" rx="15" fill="white" fill-opacity="0.1"/>
<text fill="white" fill-opacity="0.8" style="white-space: pre" xml:space="preserve" font-family="Inter" font-size="15" font-weight="600" letter-spacing="0em"><tspan x="354.5" y="80.4545">?</tspan></text>
<text fill="#F5F5F7" style="white-space: pre" xml:space="preserve" font-family="Inter" font-size="34" font-weight="bold" letter-spacing="-0.025em"><tspan x="16" y="142.864">Champions</tspan></text>
<text fill="white" fill-opacity="0.55" style="white-space: pre" xml:space="preserve" font-family="Inter" font-size="15" letter-spacing="-0.006em"><tspan x="16" y="167.455">Shanghai &#xb7; termin&#xe9; le 18 oct.</tspan></text>
<g clip-path="url(#clip1_12_237)">
<path d="M195 463C251.333 463 297 417.333 297 361C297 304.667 251.333 259 195 259C138.667 259 93 304.667 93 361C93 417.333 138.667 463 195 463Z" stroke="white" stroke-opacity="0.05"/>
<path d="M195 423C229.242 423 257 395.242 257 361C257 326.758 229.242 299 195 299C160.758 299 133 326.758 133 361C133 395.242 160.758 423 195 423Z" stroke="white" stroke-opacity="0.05"/>
<path d="M310.5 313.2L289.2 322C284.078 309.622 276.569 298.375 267.1 288.9" stroke="white" stroke-opacity="0.12" stroke-width="1.5" stroke-linecap="round"/>
<path d="M242.8 476.5L234 455.2C246.377 450.078 257.625 442.569 267.1 433.1" stroke="white" stroke-opacity="0.12" stroke-width="1.5" stroke-linecap="round"/>
<path d="M79.5 408.8L100.8 400C105.922 412.377 113.431 423.625 122.9 433.1" stroke="white" stroke-opacity="0.12" stroke-width="1.5" stroke-linecap="round"/>
<path d="M147.2 245.5L156 266.8C143.623 271.922 132.375 279.431 122.9 288.9" stroke="white" stroke-opacity="0.12" stroke-width="1.5" stroke-linecap="round"/>
<path d="M310.5 408.8L289.2 400C284.078 412.377 276.569 423.625 267.1 433.1" stroke="white" stroke-opacity="0.5" stroke-width="1.5" stroke-linecap="round"/>
<path d="M79.5 313.2L100.8 322C105.922 309.622 113.431 298.375 122.9 288.9" stroke="white" stroke-opacity="0.5" stroke-width="1.5" stroke-linecap="round"/>
<path d="M147.2 476.5L156 455.2C143.623 450.078 132.375 442.569 122.9 433.1" stroke="white" stroke-opacity="0.5" stroke-width="1.5" stroke-linecap="round"/>
<path d="M242.8 245.5L234 266.8C246.377 271.922 257.625 279.431 267.1 288.9" stroke="#FFC940" stroke-width="3" stroke-linecap="round"/>
<path d="M267.1 433.1L238.8 404.8C250.432 393.189 256.979 377.435 257 361" stroke="white" stroke-opacity="0.12" stroke-width="1.5" stroke-linecap="round"/>
<path d="M122.9 288.9L151.2 317.2C139.568 328.811 133.022 344.565 133 361" stroke="white" stroke-opacity="0.12" stroke-width="1.5" stroke-linecap="round"/>
<path d="M122.9 433.1L151.2 404.8C139.568 393.189 133.022 377.435 133 361" stroke="white" stroke-opacity="0.5" stroke-width="1.5" stroke-linecap="round"/>
<path d="M267.1 288.9L238.8 317.2C250.432 328.811 256.979 344.565 257 361" stroke="#FFC940" stroke-width="3" stroke-linecap="round"/>
<path d="M133 361H149" stroke="white" stroke-opacity="0.5" stroke-width="1.5"/>
<path d="M257 361H241" stroke="#FFC940" stroke-width="3"/>
<path d="M257 366C259.761 366 262 363.761 262 361C262 358.239 259.761 356 257 356C254.239 356 252 358.239 252 361C252 363.761 254.239 366 257 366Z" fill="#FFC940"/>
<path d="M133 366C135.761 366 138 363.761 138 361C138 358.239 135.761 356 133 356C130.239 356 128 358.239 128 361C128 363.761 130.239 366 133 366Z" fill="white" fill-opacity="0.6"/>
<path d="M249.3 246.8C258.689 246.8 266.3 239.189 266.3 229.8C266.3 220.411 258.689 212.8 249.3 212.8C239.911 212.8 232.3 220.411 232.3 229.8C232.3 239.189 239.911 246.8 249.3 246.8Z" fill="#08090B"/>
<path d="M249.3 246.8C258.689 246.8 266.3 239.189 266.3 229.8C266.3 220.411 258.689 212.8 249.3 212.8C239.911 212.8 232.3 220.411 232.3 229.8C232.3 239.189 239.911 246.8 249.3 246.8Z" fill="#FFC940" fill-opacity="0.16" stroke="#FFC940" stroke-width="2"/>
<g opacity="0.4">
<path d="M326.2 323.7C335.589 323.7 343.2 316.089 343.2 306.7C343.2 297.311 335.589 289.7 326.2 289.7C316.811 289.7 309.2 297.311 309.2 306.7C309.2 316.089 316.811 323.7 326.2 323.7Z" fill="#08090B"/>
<path d="M326.2 323.7C335.589 323.7 343.2 316.089 343.2 306.7C343.2 297.311 335.589 289.7 326.2 289.7C316.811 289.7 309.2 297.311 309.2 306.7C309.2 316.089 316.811 323.7 326.2 323.7Z" fill="#16171B" stroke="white" stroke-opacity="0.16"/>
</g>
<path d="M326.2 432.3C335.589 432.3 343.2 424.689 343.2 415.3C343.2 405.911 335.589 398.3 326.2 398.3C316.811 398.3 309.2 405.911 309.2 415.3C309.2 424.689 316.811 432.3 326.2 432.3Z" fill="#08090B"/>
<path d="M326.2 432.3C335.589 432.3 343.2 424.689 343.2 415.3C343.2 405.911 335.589 398.3 326.2 398.3C316.811 398.3 309.2 405.911 309.2 415.3C309.2 424.689 316.811 432.3 326.2 432.3Z" fill="#16171B" stroke="white" stroke-opacity="0.16"/>
<g opacity="0.4">
<path d="M249.3 509.2C258.689 509.2 266.3 501.589 266.3 492.2C266.3 482.811 258.689 475.2 249.3 475.2C239.911 475.2 232.3 482.811 232.3 492.2C232.3 501.589 239.911 509.2 249.3 509.2Z" fill="#08090B"/>
<path d="M249.3 509.2C258.689 509.2 266.3 501.589 266.3 492.2C266.3 482.811 258.689 475.2 249.3 475.2C239.911 475.2 232.3 482.811 232.3 492.2C232.3 501.589 239.911 509.2 249.3 509.2Z" fill="#16171B" stroke="white" stroke-opacity="0.16"/>
</g>
<path d="M140.7 509.2C150.089 509.2 157.7 501.589 157.7 492.2C157.7 482.811 150.089 475.2 140.7 475.2C131.311 475.2 123.7 482.811 123.7 492.2C123.7 501.589 131.311 509.2 140.7 509.2Z" fill="#08090B"/>
<path d="M140.7 509.2C150.089 509.2 157.7 501.589 157.7 492.2C157.7 482.811 150.089 475.2 140.7 475.2C131.311 475.2 123.7 482.811 123.7 492.2C123.7 501.589 131.311 509.2 140.7 509.2Z" fill="#16171B" stroke="white" stroke-opacity="0.16"/>
<g opacity="0.4">
<path d="M63.8 432.3C73.1888 432.3 80.8 424.689 80.8 415.3C80.8 405.911 73.1888 398.3 63.8 398.3C54.4111 398.3 46.8 405.911 46.8 415.3C46.8 424.689 54.4111 432.3 63.8 432.3Z" fill="#08090B"/>
<path d="M63.8 432.3C73.1888 432.3 80.8 424.689 80.8 415.3C80.8 405.911 73.1888 398.3 63.8 398.3C54.4111 398.3 46.8 405.911 46.8 415.3C46.8 424.689 54.4111 432.3 63.8 432.3Z" fill="#16171B" stroke="white" stroke-opacity="0.16"/>
</g>
<path d="M63.8 323.7C73.1888 323.7 80.8 316.089 80.8 306.7C80.8 297.311 73.1888 289.7 63.8 289.7C54.4111 289.7 46.8 297.311 46.8 306.7C46.8 316.089 54.4111 323.7 63.8 323.7Z" fill="#08090B"/>
<path d="M63.8 323.7C73.1888 323.7 80.8 316.089 80.8 306.7C80.8 297.311 73.1888 289.7 63.8 289.7C54.4111 289.7 46.8 297.311 46.8 306.7C46.8 316.089 54.4111 323.7 63.8 323.7Z" fill="#16171B" stroke="white" stroke-opacity="0.16"/>
<g opacity="0.4">
<path d="M140.7 246.8C150.089 246.8 157.7 239.189 157.7 229.8C157.7 220.411 150.089 212.8 140.7 212.8C131.311 212.8 123.7 220.411 123.7 229.8C123.7 239.189 131.311 246.8 140.7 246.8Z" fill="#08090B"/>
<path d="M140.7 246.8C150.089 246.8 157.7 239.189 157.7 229.8C157.7 220.411 150.089 212.8 140.7 212.8C131.311 212.8 123.7 220.411 123.7 229.8C123.7 239.189 131.311 246.8 140.7 246.8Z" fill="#16171B" stroke="white" stroke-opacity="0.16"/>
</g>
<path d="M195 417C225.928 417 251 391.928 251 361C251 330.072 225.928 305 195 305C164.072 305 139 330.072 139 361C139 391.928 164.072 417 195 417Z" fill="#FFC940" fill-opacity="0.07"/>
<path d="M195 407C220.405 407 241 386.405 241 361C241 335.595 220.405 315 195 315C169.595 315 149 335.595 149 361C149 386.405 169.595 407 195 407Z" fill="#FFC940" fill-opacity="0.18" stroke="#FFC940" stroke-width="1.5"/>
<path d="M187 329H203V334C203 336.122 202.157 338.157 200.657 339.657C199.157 341.157 197.122 342 195 342C192.878 342 190.843 341.157 189.343 339.657C187.843 338.157 187 336.122 187 334V329Z" fill="#FFC940"/>
<path d="M196.5 341H193.5V345H196.5V341Z" fill="#FFC940"/>
<path d="M199.8 344.5H190.2C189.537 344.5 189 345.037 189 345.7V345.8C189 346.463 189.537 347 190.2 347H199.8C200.463 347 201 346.463 201 345.8V345.7C201 345.037 200.463 344.5 199.8 344.5Z" fill="#FFC940"/>
<path d="M187 331H184C183.521 331.472 183.215 332.092 183.13 332.759C183.046 333.427 183.188 334.103 183.534 334.68C183.88 335.256 184.41 335.7 185.038 335.94C185.667 336.179 186.358 336.2 187 336M203 331H206C206.479 331.472 206.785 332.092 206.87 332.759C206.954 333.427 206.812 334.103 206.466 334.68C206.12 335.256 205.59 335.7 204.962 335.94C204.333 336.179 203.642 336.2 203 336" stroke="#FFC940" stroke-width="1.5"/>
<text fill="#FFC940" style="white-space: pre" xml:space="preserve" font-family="Inter" font-size="11" font-weight="bold" letter-spacing="0em"><tspan x="241.352" y="233.5">G2</tspan></text>
<text fill="white" fill-opacity="0.4" style="white-space: pre" xml:space="preserve" font-family="Inter" font-size="11" font-weight="bold" letter-spacing="0em"><tspan x="319.206" y="310.5">TL</tspan></text>
<text fill="white" style="white-space: pre" xml:space="preserve" font-family="Inter" font-size="10" font-weight="bold" letter-spacing="0em"><tspan x="316.407" y="418.636">PRX</tspan></text>
<text fill="white" fill-opacity="0.4" style="white-space: pre" xml:space="preserve" font-family="Inter" font-size="10" font-weight="bold" letter-spacing="0em"><tspan x="238.497" y="495.636">EDG</tspan></text>
<text fill="white" style="white-space: pre" xml:space="preserve" font-family="Inter" font-size="10" font-weight="bold" letter-spacing="0em"><tspan x="130.139" y="495.636">FNC</tspan></text>
<text fill="white" fill-opacity="0.4" style="white-space: pre" xml:space="preserve" font-family="Inter" font-size="10" font-weight="bold" letter-spacing="0em"><tspan x="53.4854" y="418.636">SEN</tspan></text>
<text fill="white" style="white-space: pre" xml:space="preserve" font-family="Inter" font-size="11" font-weight="bold" letter-spacing="0em"><tspan x="56.2227" y="310.5">TH</tspan></text>
<text fill="white" fill-opacity="0.4" style="white-space: pre" xml:space="preserve" font-family="Inter" font-size="10" font-weight="bold" letter-spacing="0em"><tspan x="130.007" y="233.636">DRX</tspan></text>
<text fill="#FFC940" style="white-space: pre" xml:space="preserve" font-family="Inter" font-size="20" font-weight="bold" letter-spacing="-0.01em"><tspan x="181.194" y="374.273">G2</tspan></text>
<text fill="#FFC940" fill-opacity="0.8" style="white-space: pre" xml:space="preserve" font-family="Inter" font-size="8" font-weight="bold" letter-spacing="0.1em"><tspan x="170.274" y="387.909">CHAMPION</tspan></text>
</g>
<g filter="url(#filter0_i_12_237)">
<rect x="16" y="551" width="358" height="163" rx="22" fill="#16171B"/>
<rect x="16.5" y="551.5" width="357" height="162" rx="21.5" stroke="white" stroke-opacity="0.08"/>
<text fill="white" fill-opacity="0.5" style="white-space: pre" xml:space="preserve" font-family="Inter" font-size="12" font-weight="600" letter-spacing="0.04em"><tspan x="33" y="579.864">GRANDE FINALE &#xb7; BO5</tspan></text>
<g clip-path="url(#clip2_12_237)">
<rect x="33.75" y="593.75" width="24.5" height="24.5" rx="12.25" fill="#FFC940" fill-opacity="0.16"/>
<rect x="33.75" y="593.75" width="24.5" height="24.5" rx="12.25" stroke="#FFC940" stroke-width="1.5"/>
<text fill="#FFC940" style="white-space: pre" xml:space="preserve" font-family="Inter" font-size="9" font-weight="bold" letter-spacing="0em"><tspan x="39.5" y="609.273">G2</tspan></text>
<text fill="#FFC940" style="white-space: pre" xml:space="preserve" font-family="Inter" font-size="15" font-weight="600" letter-spacing="-0.006em"><tspan x="69" y="611.455">G2 Esports</tspan></text>
<text fill="white" style="white-space: pre" xml:space="preserve" font-family="Inter" font-size="15" font-weight="bold" letter-spacing="0em"><tspan x="347" y="611.455">3</tspan></text>
</g>
<g clip-path="url(#clip3_12_237)">
<rect x="33" y="629" width="26" height="26" rx="13" fill="white" fill-opacity="0.07"/>
<text fill="white" style="white-space: pre" xml:space="preserve" font-family="Inter" font-size="8" font-weight="bold" letter-spacing="0em"><tspan x="37.5" y="644.909">FNC</tspan></text>
<text fill="white" style="white-space: pre" xml:space="preserve" font-family="Inter" font-size="15" letter-spacing="-0.006em"><tspan x="69" y="647.455">Fnatic</tspan></text>
<text fill="white" fill-opacity="0.4" style="white-space: pre" xml:space="preserve" font-family="Inter" font-size="15" font-weight="bold" letter-spacing="0em"><tspan x="349" y="647.455">1</tspan></text>
</g>
<text fill="white" fill-opacity="0.5" style="white-space: pre" xml:space="preserve" font-family="Inter" font-size="13" letter-spacing="0em"><tspan x="33" y="677.727">Fnatic &#xe9;tait revenu par le rep&#xea;chage apr&#xe8;s sa d&#xe9;faite </tspan><tspan x="33" y="693.727">en finale du haut.</tspan></text>
</g>
<g filter="url(#filter1_i_12_237)">
<rect x="16" y="734" width="358" height="208" rx="22" fill="#16171B"/>
<rect x="16.5" y="734.5" width="357" height="207" rx="21.5" stroke="white" stroke-opacity="0.08"/>
<text fill="white" fill-opacity="0.5" style="white-space: pre" xml:space="preserve" font-family="Inter" font-size="12" font-weight="600" letter-spacing="0.04em"><tspan x="33" y="762.864">LE PARCOURS DE G2</tspan></text>
<text fill="white" fill-opacity="0.55" style="white-space: pre" xml:space="preserve" font-family="Inter" font-size="14" font-weight="500" letter-spacing="0em"><tspan x="33" y="790.591">Quart</tspan></text>
<text fill="#F5F5F7" style="white-space: pre" xml:space="preserve" font-family="Inter" font-size="14" font-weight="600" letter-spacing="0em"><tspan x="201.824" y="790.591">2&#x2013;1 contre Team Liquid</tspan></text>
<mask id="path-73-inside-1_12_237" fill="white">
<path d="M33 805H357V845H33V805Z"/>
</mask>
<path d="M33 805V806H357V805V804H33V805Z" fill="white" fill-opacity="0.08" mask="url(#path-73-inside-1_12_237)"/>
<text fill="white" fill-opacity="0.55" style="white-space: pre" xml:space="preserve" font-family="Inter" font-size="14" font-weight="500" letter-spacing="0em"><tspan x="33" y="830.591">Demi</tspan></text>
<text fill="#F5F5F7" style="white-space: pre" xml:space="preserve" font-family="Inter" font-size="14" font-weight="600" letter-spacing="0em"><tspan x="213.049" y="830.591">2&#x2013;0 contre Paper Rex</tspan></text>
</g>
<text fill="white" style="white-space: pre" xml:space="preserve" font-family="Inter" font-size="16" font-weight="600" letter-spacing="0em"><tspan x="32" y="31.8182">09:41</tspan></text>
<text fill="white" style="white-space: pre" xml:space="preserve" font-family="Inter" font-size="14" font-weight="600" letter-spacing="0em"><tspan x="303" y="31.0909">5G  87 %</tspan></text>
<foreignObject x="-14" y="738" width="418" height="128"><div xmlns="http://www.w3.org/1999/xhtml" style="backdrop-filter:blur(12px);clip-path:url(#bgblur_4_12_237_clip_path);height:100%;width:100%"></div></foreignObject><g filter="url(#filter2_d_12_237)" data-figma-bg-blur-radius="24">
<rect x="16" y="762" width="358" height="64" rx="32" fill="#1C1C21" fill-opacity="0.72"/>
<rect x="16.5" y="762.5" width="357" height="63" rx="31.5" stroke="white" stroke-opacity="0.12"/>
<path d="M66 791.5C68.4853 791.5 70.5 789.485 70.5 787C70.5 784.515 68.4853 782.5 66 782.5C63.5147 782.5 61.5 784.515 61.5 787C61.5 789.485 63.5147 791.5 66 791.5Z" stroke="white" stroke-opacity="0.55" stroke-width="1.8" stroke-linecap="round" stroke-linejoin="round"/>
<path d="M66 777.5V780M66 794V796.5M56.5 787H59M73 787H75.5M59.3 780.3L61.1 782.1M70.9 791.9L72.7 793.7M59.3 793.7L61.1 791.9M70.9 782.1L72.7 780.3" stroke="white" stroke-opacity="0.55" stroke-width="1.8" stroke-linecap="round" stroke-linejoin="round"/>
<text fill="white" fill-opacity="0.55" style="white-space: pre" xml:space="preserve" font-family="Inter" font-size="10" font-weight="500" letter-spacing="0.01em"><tspan x="38.5" y="810.636">Aujourd&#39;hui</tspan></text>
<path d="M157 780H147C145.067 780 143.5 781.567 143.5 783.5V792C143.5 793.933 145.067 795.5 147 795.5H157C158.933 795.5 160.5 793.933 160.5 792V783.5C160.5 781.567 158.933 780 157 780Z" stroke="white" stroke-opacity="0.55" stroke-width="1.8" stroke-linecap="round" stroke-linejoin="round"/>
<path d="M143.5 785H160.5M148 778V782M156 778V782" stroke="white" stroke-opacity="0.55" stroke-width="1.8" stroke-linecap="round" stroke-linejoin="round"/>
<text fill="white" fill-opacity="0.55" style="white-space: pre" xml:space="preserve" font-family="Inter" font-size="10" font-weight="500" letter-spacing="0.01em"><tspan x="133" y="810.636">Agenda</tspan></text>
<rect x="195" y="769" width="86" height="50" rx="25" fill="white" fill-opacity="0.12"/>
<path d="M238 778L240.8 783.7L247 784.6L242.5 789L243.5 795.2L238 792.3L232.5 795.2L233.5 789L229 784.6L235.2 783.7L238 778Z" fill="white" stroke="white" stroke-width="1.8" stroke-linecap="round" stroke-linejoin="round"/>
<text fill="white" style="white-space: pre" xml:space="preserve" font-family="Inter" font-size="10" font-weight="600" letter-spacing="0.01em"><tspan x="223" y="810.636">Suivis</tspan></text>
<path d="M327.5 779H320.5C318.015 779 316 781.015 316 783.5V790.5C316 792.985 318.015 795 320.5 795H327.5C329.985 795 332 792.985 332 790.5V783.5C332 781.015 329.985 779 327.5 779Z" stroke="white" stroke-opacity="0.55" stroke-width="1.8" stroke-linecap="round" stroke-linejoin="round"/>
<path d="M321 785.1C321.608 785.1 322.1 784.607 322.1 784C322.1 783.392 321.608 782.9 321 782.9C320.393 782.9 319.9 783.392 319.9 784C319.9 784.607 320.393 785.1 321 785.1Z" fill="white" stroke="white" stroke-opacity="0.55" stroke-width="1.8" stroke-linecap="round" stroke-linejoin="round"/>
<path d="M327 791.1C327.608 791.1 328.1 790.607 328.1 790C328.1 789.392 327.608 788.9 327 788.9C326.393 788.9 325.9 789.392 325.9 790C325.9 790.607 326.393 791.1 327 791.1Z" fill="white" stroke="white" stroke-opacity="0.55" stroke-width="1.8" stroke-linecap="round" stroke-linejoin="round"/>
<path d="M327 785.1C327.608 785.1 328.1 784.607 328.1 784C328.1 783.392 327.608 782.9 327 782.9C326.393 782.9 325.9 783.392 325.9 784C325.9 784.607 326.393 785.1 327 785.1Z" fill="white" stroke="white" stroke-opacity="0.55" stroke-width="1.8" stroke-linecap="round" stroke-linejoin="round"/>
<path d="M321 791.1C321.608 791.1 322.1 790.607 322.1 790C322.1 789.392 321.608 788.9 321 788.9C320.393 788.9 319.9 789.392 319.9 790C319.9 790.607 320.393 791.1 321 791.1Z" fill="white" stroke="white" stroke-opacity="0.55" stroke-width="1.8" stroke-linecap="round" stroke-linejoin="round"/>
<text fill="white" fill-opacity="0.55" style="white-space: pre" xml:space="preserve" font-family="Inter" font-size="10" font-weight="500" letter-spacing="0.01em"><tspan x="315" y="810.636">Jeu</tspan></text>
</g>
</g>
<defs>
<filter id="filter0_i_12_237" x="16" y="551" width="358" height="163" filterUnits="userSpaceOnUse" color-interpolation-filters="sRGB">
<feFlood flood-opacity="0" result="BackgroundImageFix"/>
<feBlend mode="normal" in="SourceGraphic" in2="BackgroundImageFix" result="shape"/>
<feColorMatrix in="SourceAlpha" type="matrix" values="0 0 0 0 0 0 0 0 0 0 0 0 0 0 0 0 0 0 127 0" result="hardAlpha"/>
<feOffset dy="1"/>
<feComposite in2="hardAlpha" operator="arithmetic" k2="-1" k3="1"/>
<feColorMatrix type="matrix" values="0 0 0 0 1 0 0 0 0 1 0 0 0 0 1 0 0 0 0.07 0"/>
<feBlend mode="normal" in2="shape" result="effect1_innerShadow_12_237"/>
</filter>
<filter id="filter1_i_12_237" x="16" y="734" width="358" height="208" filterUnits="userSpaceOnUse" color-interpolation-filters="sRGB">
<feFlood flood-opacity="0" result="BackgroundImageFix"/>
<feBlend mode="normal" in="SourceGraphic" in2="BackgroundImageFix" result="shape"/>
<feColorMatrix in="SourceAlpha" type="matrix" values="0 0 0 0 0 0 0 0 0 0 0 0 0 0 0 0 0 0 127 0" result="hardAlpha"/>
<feOffset dy="1"/>
<feComposite in2="hardAlpha" operator="arithmetic" k2="-1" k3="1"/>
<feColorMatrix type="matrix" values="0 0 0 0 1 0 0 0 0 1 0 0 0 0 1 0 0 0 0.07 0"/>
<feBlend mode="normal" in2="shape" result="effect1_innerShadow_12_237"/>
</filter>
<filter id="filter2_d_12_237" x="-14" y="738" width="418" height="128" filterUnits="userSpaceOnUse" color-interpolation-filters="sRGB">
<feFlood flood-opacity="0" result="BackgroundImageFix"/>
<feColorMatrix in="SourceAlpha" type="matrix" values="0 0 0 0 0 0 0 0 0 0 0 0 0 0 0 0 0 0 127 0" result="hardAlpha"/>
<feOffset dy="10"/>
<feGaussianBlur stdDeviation="15"/>
<feColorMatrix type="matrix" values="0 0 0 0 0 0 0 0 0 0 0 0 0 0 0 0 0 0 0.5 0"/>
<feBlend mode="normal" in2="BackgroundImageFix" result="effect1_dropShadow_12_237"/>
<feBlend mode="normal" in="SourceGraphic" in2="effect1_dropShadow_12_237" result="shape"/>
</filter>
<clipPath id="bgblur_4_12_237_clip_path" transform="translate(14 -738)"><rect x="16" y="762" width="358" height="64" rx="32"/>
</clipPath><clipPath id="clip0_12_237">
<rect width="390" height="844" fill="white"/>
</clipPath>
<clipPath id="clip1_12_237">
<rect width="340" height="340" fill="white" transform="translate(25 191)"/>
</clipPath>
<clipPath id="clip2_12_237">
<rect width="324" height="26" fill="white" transform="translate(33 593)"/>
</clipPath>
<clipPath id="clip3_12_237">
<rect width="324" height="26" fill="white" transform="translate(33 629)"/>
</clipPath>
</defs>
</svg>
