<svg width="390" height="844" viewBox="0 0 390 844" fill="none" xmlns="http://www.w3.org/2000/svg">
<g clip-path="url(#clip0_16_132)">
<rect width="390" height="844" fill="#08090B"/>
<text fill="white" fill-opacity="0.85" style="white-space: pre" xml:space="preserve" font-family="Inter" font-size="17" letter-spacing="0em"><tspan x="16" y="81.1818">&#x2039;  Agenda</tspan></text>
<rect x="340" y="60" width="34" height="30" rx="15" fill="#FFC940" fill-opacity="0.16"/>
<path d="M348.667 74.9999C348.667 74.9999 351.667 69.5833 357 69.5833C362.333 69.5833 365.333 74.9999 365.333 74.9999C365.333 74.9999 362.333 80.4166 357 80.4166C351.667 80.4166 348.667 74.9999 348.667 74.9999Z" stroke="#FFC940" stroke-width="1.5" stroke-linecap="round"/>
<path d="M357 77.5C358.381 77.5 359.5 76.3807 359.5 75C359.5 73.6193 358.381 72.5 357 72.5C355.619 72.5 354.5 73.6193 354.5 75C354.5 76.3807 355.619 77.5 357 77.5Z" stroke="#FFC940" stroke-width="1.5" stroke-linecap="round"/>
<path d="M350.333 68.3333L363.667 81.6666" stroke="#FFC940" stroke-width="1.5" stroke-linecap="round"/>
<text fill="white" fill-opacity="0.5" style="white-space: pre" xml:space="preserve" font-family="Inter" font-size="12" font-weight="600" letter-spacing="0.04em"><tspan x="119.5" y="125.864">DEMI-FINALE &#xb7; TERMIN&#xc9;</tspan></text>
<g clip-path="url(#clip1_16_132)">
<rect x="36.75" y="145.75" width="62.5" height="62.5" rx="31.25" fill="#FFC940" fill-opacity="0.16"/>
<rect x="36.75" y="145.75" width="62.5" height="62.5" rx="31.25" stroke="#FFC940" stroke-width="1.5"/>
<text fill="#FFC940" style="white-space: pre" xml:space="preserve" font-family="Inter" font-size="22" font-weight="bold" letter-spacing="0em"><tspan x="52.5" y="185">G2</tspan></text>
<text fill="#F5F5F7" style="white-space: pre" xml:space="preserve" font-family="Inter" font-size="15" font-weight="600" letter-spacing="-0.006em"><tspan x="28" y="231.455">G2 Esports</tspan></text>
</g>
<rect x="152.5" y="162" width="92" height="56" rx="14" fill="white" fill-opacity="0.08"/>
<rect x="153" y="162.5" width="91" height="55" rx="13.5" stroke="white" stroke-opacity="0.1"/>
<text fill="white" fill-opacity="0.35" style="white-space: pre" xml:space="preserve" font-family="Inter" font-size="28" font-weight="bold" letter-spacing="0em"><tspan x="169.5" y="200.182">?</tspan></text>
<text fill="white" fill-opacity="0.25" style="white-space: pre" xml:space="preserve" font-family="Inter" font-size="20" font-weight="500" letter-spacing="0em"><tspan x="193.5" y="197.273">&#x2013;</tspan></text>
<text fill="white" fill-opacity="0.35" style="white-space: pre" xml:space="preserve" font-family="Inter" font-size="28" font-weight="bold" letter-spacing="0em"><tspan x="211.5" y="200.182">?</tspan></text>
<g clip-path="url(#clip2_16_132)">
<rect x="293.5" y="145" width="64" height="64" rx="32" fill="white" fill-opacity="0.07"/>
<text fill="white" style="white-space: pre" xml:space="preserve" font-family="Inter" font-size="19" font-weight="bold" letter-spacing="0em"><tspan x="306" y="183.909">PRX</tspan></text>
<text fill="#F5F5F7" style="white-space: pre" xml:space="preserve" font-family="Inter" font-size="15" font-weight="600" letter-spacing="-0.006em"><tspan x="289" y="231.455">Paper Rex</tspan></text>
</g>
<rect x="76" y="251" width="238" height="32" rx="16" fill="white" fill-opacity="0.1"/>
<text fill="white" fill-opacity="0.85" style="white-space: pre" xml:space="preserve" font-family="Inter" font-size="13" font-weight="600" letter-spacing="0em"><tspan x="90" y="271.727">Toucher longuement pour r&#xe9;v&#xe9;ler</tspan></text>
<rect x="16" y="303" width="358" height="49" rx="16" fill="white"/>
<text fill="#08090B" style="white-space: pre" xml:space="preserve" font-family="Inter" font-size="13" font-weight="bold" letter-spacing="0em"><tspan x="114.5" y="332.227">&#x25b6;</tspan></text>
<text fill="#08090B" style="white-space: pre" xml:space="preserve" font-family="Inter" font-size="16" font-weight="600" letter-spacing="-0.004em"><tspan x="135.5" y="333.318">Regarder le replay</tspan></text>
<g filter="url(#filter0_i_16_132)">
<rect x="16" y="372" width="358" height="202" rx="22" fill="#16171B"/>
<rect x="16.5" y="372.5" width="357" height="201" rx="21.5" stroke="white" stroke-opacity="0.08"/>
<text fill="white" fill-opacity="0.5" style="white-space: pre" xml:space="preserve" font-family="Inter" font-size="12" font-weight="600" letter-spacing="0.04em"><tspan x="33" y="400.864">CARTES JOU&#xc9;ES</tspan></text>
<text fill="white" fill-opacity="0.8" style="white-space: pre" xml:space="preserve" font-family="Inter" font-size="15" letter-spacing="0em"><tspan x="33" y="430.455">Carte 1 &#xb7; Ascent</tspan></text>
<rect x="313" y="418" width="44" height="14" rx="7" fill="white" fill-opacity="0.12"/>
<mask id="path-28-inside-1_16_132" fill="white">
<path d="M33 445H357V486H33V445Z"/>
</mask>
<path d="M33 445V446H357V445V444H33V445Z" fill="white" fill-opacity="0.08" mask="url(#path-28-inside-1_16_132)"/>
<text fill="white" fill-opacity="0.8" style="white-space: pre" xml:space="preserve" font-family="Inter" font-size="15" letter-spacing="0em"><tspan x="33" y="471.455">Carte 2 &#xb7; Bind</tspan></text>
<rect x="313" y="459" width="44" height="14" rx="7" fill="white" fill-opacity="0.12"/>
<mask id="path-32-inside-2_16_132" fill="white">
<path d="M33 486H357V527H33V486Z"/>
</mask>
<path d="M33 486V487H357V486V485H33V486Z" fill="white" fill-opacity="0.08" mask="url(#path-32-inside-2_16_132)"/>
<text fill="white" fill-opacity="0.8" style="white-space: pre" xml:space="preserve" font-family="Inter" font-size="15" letter-spacing="0em"><tspan x="33" y="512.455">Carte 3 &#xb7; Sunset</tspan></text>
<rect x="313" y="500" width="44" height="14" rx="7" fill="white" fill-opacity="0.12"/>
<text fill="white" fill-opacity="0.4" style="white-space: pre" xml:space="preserve" font-family="Inter" font-size="12" letter-spacing="0em"><tspan x="33" y="538.864">Toujours 3 lignes affich&#xe9;es, m&#xea;me si le match s&#x2019;est jou&#xe9; </tspan><tspan x="33" y="553.864">en 2 cartes : rien ne trahit le suspense.</tspan></text>
</g>
<g filter="url(#filter1_i_16_132)">
<rect x="16" y="594" width="358" height="86" rx="22" fill="#16171B"/>
<rect x="16.5" y="594.5" width="357" height="85" rx="21.5" stroke="white" stroke-opacity="0.08"/>
<g clip-path="url(#clip3_16_132)">
<g clip-path="url(#clip4_16_132)">
<text fill="#F5F5F7" style="white-space: pre" xml:space="preserve" font-family="Inter" font-size="15" font-weight="600" letter-spacing="-0.006em"><tspan x="33" y="625.455">Sans spoil pour Valorant</tspan></text>
<text fill="white" fill-opacity="0.5" style="white-space: pre" xml:space="preserve" font-family="Inter" font-size="13" letter-spacing="0em"><tspan x="33" y="643.727">Scores masqu&#xe9;s partout : notifications, </tspan><tspan x="33" y="659.727">agenda, arbre.</tspan></text>
</g>
<rect x="306" y="621.5" width="51" height="31" rx="15.5" fill="#30D158"/>
<circle cx="341.5" cy="637" r="13.5" fill="white"/>
</g>
</g>
<text fill="white" style="white-space: pre" xml:space="preserve" font-family="Inter" font-size="16" font-weight="600" letter-spacing="0em"><tspan x="32" y="31.8182">09:41</tspan></text>
<text fill="white" style="white-space: pre" xml:space="preserve" font-family="Inter" font-size="14" font-weight="600" letter-spacing="0em"><tspan x="303" y="31.0909">5G  87 %</tspan></text>
<foreignObject x="-14" y="738" width="418" height="128"><div xmlns="http://www.w3.org/1999/xhtml" style="backdrop-filter:blur(12px);clip-path:url(#bgblur_5_16_132_clip_path);height:100%;width:100%"></div></foreignObject><g filter="url(#filter2_d_16_132)" data-figma-bg-blur-radius="24">
<rect x="16" y="762" width="358" height="64" rx="32" fill="#1C1C21" fill-opacity="0.72"/>
<rect x="16.5" y="762.5" width="357" height="63" rx="31.5" stroke="white" stroke-opacity="0.12"/>
<path d="M66 791.5C68.4853 791.5 70.5 789.485 70.5 787C70.5 784.515 68.4853 782.5 66 782.5C63.5147 782.5 61.5 784.515 61.5 787C61.5 789.485 63.5147 791.5 66 791.5Z" stroke="white" stroke-opacity="0.55" stroke-width="1.8" stroke-linecap="round" stroke-linejoin="round"/>
<path d="M66 777.5V780M66 794V796.5M56.5 787H59M73 787H75.5M59.3 780.3L61.1 782.1M70.9 791.9L72.7 793.7M59.3 793.7L61.1 791.9M70.9 782.1L72.7 780.3" stroke="white" stroke-opacity="0.55" stroke-width="1.8" stroke-linecap="round" stroke-linejoin="round"/>
<text fill="white" fill-opacity="0.55" style="white-space: pre" xml:space="preserve" font-family="Inter" font-size="10" font-weight="500" letter-spacing="0.01em"><tspan x="38.5" y="810.636">Aujourd&#39;hui</tspan></text>
<rect x="109" y="769" width="86" height="50" rx="25" fill="white" fill-opacity="0.12"/>
<path d="M157 780H147C145.067 780 143.5 781.567 143.5 783.5V792C143.5 793.933 145.067 795.5 147 795.5H157C158.933 795.5 160.5 793.933 160.5 792V783.5C160.5 781.567 158.933 780 157 780Z" stroke="white" stroke-width="1.8" stroke-linecap="round" stroke-linejoin="round"/>
<path d="M143.5 785H160.5M148 778V782M156 778V782" stroke="white" stroke-width="1.8" stroke-linecap="round" stroke-linejoin="round"/>
<text fill="white" style="white-space: pre" xml:space="preserve" font-family="Inter" font-size="10" font-weight="600" letter-spacing="0.01em"><tspan x="133" y="810.636">Agenda</tspan></text>
<path d="M238 778L240.8 783.7L247 784.6L242.5 789L243.5 795.2L238 792.3L232.5 795.2L233.5 789L229 784.6L235.2 783.7L238 778Z" stroke="white" stroke-opacity="0.55" stroke-width="1.8" stroke-linecap="round" stroke-linejoin="round"/>
<text fill="white" fill-opacity="0.55" style="white-space: pre" xml:space="preserve" font-family="Inter" font-size="10" font-weight="500" letter-spacing="0.01em"><tspan x="223.5" y="810.636">Suivis</tspan></text>
<path d="M327.5 779H320.5C318.015 779 316 781.015 316 783.5V790.5C316 792.985 318.015 795 320.5 795H327.5C329.985 795 332 792.985 332 790.5V783.5C332 781.015 329.985 779 327.5 779Z" stroke="white" stroke-opacity="0.55" stroke-width="1.8" stroke-linecap="round" stroke-linejoin="round"/>
<path d="M321 785.1C321.607 785.1 322.1 784.607 322.1 784C322.1 783.392 321.607 782.9 321 782.9C320.392 782.9 319.9 783.392 319.9 784C319.9 784.607 320.392 785.1 321 785.1Z" fill="white" stroke="white" stroke-opacity="0.55" stroke-width="1.8" stroke-linecap="round" stroke-linejoin="round"/>
<path d="M327 791.1C327.607 791.1 328.1 790.607 328.1 790C328.1 789.392 327.607 788.9 327 788.9C326.392 788.9 325.9 789.392 325.9 790C325.9 790.607 326.392 791.1 327 791.1Z" fill="white" stroke="white" stroke-opacity="0.55" stroke-width="1.8" stroke-linecap="round" stroke-linejoin="round"/>
<path d="M327 785.1C327.607 785.1 328.1 784.607 328.1 784C328.1 783.392 327.607 782.9 327 782.9C326.392 782.9 325.9 783.392 325.9 784C325.9 784.607 326.392 785.1 327 785.1Z" fill="white" stroke="white" stroke-opacity="0.55" stroke-width="1.8" stroke-linecap="round" stroke-linejoin="round"/>
<path d="M321 791.1C321.607 791.1 322.1 790.607 322.1 790C322.1 789.392 321.607 788.9 321 788.9C320.392 788.9 319.9 789.392 319.9 790C319.9 790.607 320.392 791.1 321 791.1Z" fill="white" stroke="white" stroke-opacity="0.55" stroke-width="1.8" stroke-linecap="round" stroke-linejoin="round"/>
<text fill="white" fill-opacity="0.55" style="white-space: pre" xml:space="preserve" font-family="Inter" font-size="10" font-weight="500" letter-spacing="0.01em"><tspan x="315" y="810.636">Jeu</tspan></text>
</g>
</g>
<defs>
<filter id="filter0_i_16_132" x="16" y="372" width="358" height="202" filterUnits="userSpaceOnUse" color-interpolation-filters="sRGB">
<feFlood flood-opacity="0" result="BackgroundImageFix"/>
<feBlend mode="normal" in="SourceGraphic" in2="BackgroundImageFix" result="shape"/>
<feColorMatrix in="SourceAlpha" type="matrix" values="0 0 0 0 0 0 0 0 0 0 0 0 0 0 0 0 0 0 127 0" result="hardAlpha"/>
<feOffset dy="1"/>
<feComposite in2="hardAlpha" operator="arithmetic" k2="-1" k3="1"/>
<feColorMatrix type="matrix" values="0 0 0 0 1 0 0 0 0 1 0 0 0 0 1 0 0 0 0.07 0"/>
<feBlend mode="normal" in2="shape" result="effect1_innerShadow_16_132"/>
</filter>
<filter id="filter1_i_16_132" x="16" y="594" width="358" height="86" filterUnits="userSpaceOnUse" color-interpolation-filters="sRGB">
<feFlood flood-opacity="0" result="BackgroundImageFix"/>
<feBlend mode="normal" in="SourceGraphic" in2="BackgroundImageFix" result="shape"/>
<feColorMatrix in="SourceAlpha" type="matrix" values="0 0 0 0 0 0 0 0 0 0 0 0 0 0 0 0 0 0 127 0" result="hardAlpha"/>
<feOffset dy="1"/>
<feComposite in2="hardAlpha" operator="arithmetic" k2="-1" k3="1"/>
<feColorMatrix type="matrix" values="0 0 0 0 1 0 0 0 0 1 0 0 0 0 1 0 0 0 0.07 0"/>
<feBlend mode="normal" in2="shape" result="effect1_innerShadow_16_132"/>
</filter>
<filter id="filter2_d_16_132" x="-14" y="738" width="418" height="128" filterUnits="userSpaceOnUse" color-interpolation-filters="sRGB">
<feFlood flood-opacity="0" result="BackgroundImageFix"/>
<feColorMatrix in="SourceAlpha" type="matrix" values="0 0 0 0 0 0 0 0 0 0 0 0 0 0 0 0 0 0 127 0" result="hardAlpha"/>
<feOffset dy="10"/>
<feGaussianBlur stdDeviation="15"/>
<feColorMatrix type="matrix" values="0 0 0 0 0 0 0 0 0 0 0 0 0 0 0 0 0 0 0.5 0"/>
<feBlend mode="normal" in2="BackgroundImageFix" result="effect1_dropShadow_16_132"/>
<feBlend mode="normal" in="SourceGraphic" in2="effect1_dropShadow_16_132" result="shape"/>
</filter>
<clipPath id="bgblur_5_16_132_clip_path" transform="translate(14 -738)"><rect x="16" y="762" width="358" height="64" rx="32"/>
</clipPath><clipPath id="clip0_16_132">
<rect width="390" height="844" fill="white"/>
</clipPath>
<clipPath id="clip1_16_132">
<rect width="80" height="90" fill="white" transform="translate(28 145)"/>
</clipPath>
<clipPath id="clip2_16_132">
<rect width="73" height="90" fill="white" transform="translate(289 145)"/>
</clipPath>
<clipPath id="clip3_16_132">
<rect width="324" height="52" fill="white" transform="translate(33 611)"/>
</clipPath>
<clipPath id="clip4_16_132">
<rect width="261" height="52" fill="white" transform="translate(33 611)"/>
</clipPath>
</defs>
</svg>
